<mxfile host="app.diagrams.net" modified="2024-06-11T18:50:10.722Z" agent="Mozilla/5.0 (Windows NT 10.0; Win64; x64) AppleWebKit/537.36 (KHTML, like Gecko) Chrome/125.0.0.0 Safari/537.36 Edg/125.0.0.0" etag="cuqomM4fY1zuyNKrGIpY" version="24.5.3" type="device">
  <diagram id="3j9G0F825_cHGCq9AKto" name="Page-2">
    <mxGraphModel dx="2672" dy="-7275" grid="1" gridSize="10" guides="1" tooltips="1" connect="1" arrows="1" fold="1" page="1" pageScale="1" pageWidth="827" pageHeight="1169" math="0" shadow="0">
      <root>
        <mxCell id="0" />
        <mxCell id="1" parent="0" />
        <mxCell id="QFe1ScGnCT4EniJzE_eW-297" value="" style="rounded=0;whiteSpace=wrap;html=1;" parent="1" vertex="1">
          <mxGeometry x="-670.0699999999999" y="8280" width="1250" height="860" as="geometry" />
        </mxCell>
        <mxCell id="QFe1ScGnCT4EniJzE_eW-298" value="" style="rounded=0;whiteSpace=wrap;html=1;fillColor=#f5f5f5;fontColor=#333333;strokeColor=#666666;rotation=-270;" parent="1" vertex="1">
          <mxGeometry x="-990" y="8604.69" width="857.5" height="213.13" as="geometry" />
        </mxCell>
        <mxCell id="QFe1ScGnCT4EniJzE_eW-299" value="&lt;font size=&quot;3&quot;&gt;&lt;b&gt;LOGO&lt;/b&gt;&lt;/font&gt;" style="rhombus;whiteSpace=wrap;html=1;fillColor=#dae8fc;strokeColor=#6c8ebf;" parent="1" vertex="1">
          <mxGeometry x="-659.0699999999999" y="8290" width="80" height="80" as="geometry" />
        </mxCell>
        <mxCell id="QFe1ScGnCT4EniJzE_eW-300" value="&lt;b&gt;Logout&lt;/b&gt;" style="rounded=0;whiteSpace=wrap;html=1;fillColor=#dae8fc;strokeColor=#6c8ebf;" parent="1" vertex="1">
          <mxGeometry x="409.93000000000006" y="8310" width="90" height="40" as="geometry" />
        </mxCell>
        <mxCell id="QFe1ScGnCT4EniJzE_eW-301" value="" style="rounded=0;whiteSpace=wrap;html=1;fillColor=#f5f5f5;fontColor=#f5f5f5;strokeColor=#666666;" parent="1" vertex="1">
          <mxGeometry x="-669.0699999999999" y="9040" width="1249" height="100" as="geometry" />
        </mxCell>
        <mxCell id="QFe1ScGnCT4EniJzE_eW-302" value="&lt;font style=&quot;font-size: 14px;&quot;&gt;Footer Information&lt;/font&gt;" style="text;html=1;align=center;verticalAlign=middle;whiteSpace=wrap;rounded=0;" parent="1" vertex="1">
          <mxGeometry x="-116.06999999999994" y="9075" width="126" height="30" as="geometry" />
        </mxCell>
        <mxCell id="QFe1ScGnCT4EniJzE_eW-303" value="&lt;b&gt;&lt;font style=&quot;font-size: 18px;&quot;&gt;Welcome Message&lt;/font&gt;&lt;/b&gt;" style="text;html=1;align=center;verticalAlign=middle;whiteSpace=wrap;rounded=0;" parent="1" vertex="1">
          <mxGeometry x="-429.07" y="8300" width="230" height="30" as="geometry" />
        </mxCell>
        <mxCell id="QFe1ScGnCT4EniJzE_eW-304" value="Current user information" style="text;html=1;align=center;verticalAlign=middle;whiteSpace=wrap;rounded=0;" parent="1" vertex="1">
          <mxGeometry x="-409.07" y="8340" width="160" height="30" as="geometry" />
        </mxCell>
        <mxCell id="QFe1ScGnCT4EniJzE_eW-305" value="&lt;font style=&quot;font-size: 14px;&quot;&gt;Menu Options&lt;/font&gt;" style="text;html=1;align=center;verticalAlign=middle;whiteSpace=wrap;rounded=0;" parent="1" vertex="1">
          <mxGeometry x="-649.0699999999999" y="8450" width="110" height="30" as="geometry" />
        </mxCell>
        <mxCell id="QFe1ScGnCT4EniJzE_eW-306" value="&lt;font style=&quot;font-size: 14px;&quot;&gt;Dashboard&lt;/font&gt;" style="text;html=1;align=center;verticalAlign=middle;whiteSpace=wrap;rounded=0;" parent="1" vertex="1">
          <mxGeometry x="-664.0699999999999" y="8520" width="110" height="30" as="geometry" />
        </mxCell>
        <mxCell id="QFe1ScGnCT4EniJzE_eW-307" value="&lt;font style=&quot;font-size: 14px;&quot;&gt;Manage Accounts&lt;/font&gt;" style="text;html=1;align=center;verticalAlign=middle;whiteSpace=wrap;rounded=0;" parent="1" vertex="1">
          <mxGeometry x="-659.0699999999999" y="8610" width="140" height="30" as="geometry" />
        </mxCell>
        <mxCell id="QFe1ScGnCT4EniJzE_eW-308" style="edgeStyle=orthogonalEdgeStyle;rounded=0;orthogonalLoop=1;jettySize=auto;html=1;exitX=0.5;exitY=1;exitDx=0;exitDy=0;" parent="1" edge="1">
          <mxGeometry relative="1" as="geometry">
            <mxPoint x="-624.0699999999999" y="8740" as="sourcePoint" />
            <mxPoint x="-624.0699999999999" y="8740" as="targetPoint" />
          </mxGeometry>
        </mxCell>
        <mxCell id="QFe1ScGnCT4EniJzE_eW-309" value="" style="endArrow=none;html=1;rounded=0;" parent="1" edge="1">
          <mxGeometry width="50" height="50" relative="1" as="geometry">
            <mxPoint x="-529.0699999999999" y="8500" as="sourcePoint" />
            <mxPoint x="-649.0699999999999" y="8500" as="targetPoint" />
          </mxGeometry>
        </mxCell>
        <mxCell id="QFe1ScGnCT4EniJzE_eW-310" value="Customer1 Details" style="text;html=1;align=center;verticalAlign=middle;whiteSpace=wrap;rounded=0;" parent="1" vertex="1">
          <mxGeometry x="-16.069999999999993" y="8410" width="130" height="30" as="geometry" />
        </mxCell>
        <mxCell id="QFe1ScGnCT4EniJzE_eW-311" value="&lt;font style=&quot;font-size: 14px;&quot;&gt;Manage Customers&lt;/font&gt;" style="text;html=1;align=center;verticalAlign=middle;whiteSpace=wrap;rounded=0;fillColor=#3399FF;" parent="1" vertex="1">
          <mxGeometry x="-649.0699999999999" y="8660" width="129" height="30" as="geometry" />
        </mxCell>
        <mxCell id="QFe1ScGnCT4EniJzE_eW-312" value="&lt;font style=&quot;font-size: 14px;&quot;&gt;Manage users&lt;/font&gt;" style="text;html=1;align=center;verticalAlign=middle;whiteSpace=wrap;rounded=0;" parent="1" vertex="1">
          <mxGeometry x="-655.0699999999999" y="8570" width="110" height="30" as="geometry" />
        </mxCell>
        <mxCell id="QFe1ScGnCT4EniJzE_eW-313" value="Customer Id:&amp;nbsp; 1&lt;div&gt;Full Name: Thando Maseko&lt;/div&gt;&lt;div&gt;Email:&amp;nbsp;thando.maseko@gmail.com&lt;/div&gt;&lt;div&gt;Phone Number:&amp;nbsp;0827654321&lt;/div&gt;&lt;div&gt;Address:&amp;nbsp;&amp;nbsp;12 Vilakazi Street, Soweto,&amp;nbsp; Gauteng, 1804&lt;/div&gt;" style="rounded=1;whiteSpace=wrap;html=1;" parent="1" vertex="1">
          <mxGeometry x="-241.00000000000006" y="8555" width="570" height="310" as="geometry" />
        </mxCell>
        <mxCell id="3qDi124nrNxIVEWdp44m-1" value="&lt;h1 style=&quot;margin-top: 0px;&quot;&gt;A&lt;/h1&gt;" style="text;html=1;whiteSpace=wrap;overflow=hidden;rounded=0;align=center;" vertex="1" parent="1">
          <mxGeometry x="220" y="8490" width="30" height="40" as="geometry" />
        </mxCell>
        <mxCell id="3qDi124nrNxIVEWdp44m-2" value="&lt;h1 style=&quot;margin-top: 0px;&quot;&gt;B&lt;/h1&gt;" style="text;html=1;whiteSpace=wrap;overflow=hidden;rounded=0;align=center;" vertex="1" parent="1">
          <mxGeometry x="-500" y="8300" width="30" height="40" as="geometry" />
        </mxCell>
        <mxCell id="3qDi124nrNxIVEWdp44m-8" value="&lt;h1 style=&quot;margin-top: 0px;&quot;&gt;H&lt;/h1&gt;" style="text;html=1;whiteSpace=wrap;overflow=hidden;rounded=0;align=center;" vertex="1" parent="1">
          <mxGeometry x="29" y="8295" width="30" height="40" as="geometry" />
        </mxCell>
        <mxCell id="3qDi124nrNxIVEWdp44m-12" value="&lt;h1 style=&quot;margin-top: 0px;&quot;&gt;C&lt;/h1&gt;" style="text;html=1;whiteSpace=wrap;overflow=hidden;rounded=0;align=center;" vertex="1" parent="1">
          <mxGeometry x="33.92999999999995" y="9053" width="30" height="40" as="geometry" />
        </mxCell>
      </root>
    </mxGraphModel>
  </diagram>
</mxfile>
